<svg width="209" height="40" viewBox="0 0 209 40" fill="none" xmlns="http://www.w3.org/2000/svg">
<path d="M0.5 8C0.5 3.85786 3.85786 0.5 8 0.5H201C205.142 0.5 208.5 3.85786 208.5 8V32C208.5 36.1421 205.142 39.5 201 39.5H8C3.85786 39.5 0.5 36.1421 0.5 32V8Z" fill="white" stroke="#E5E5E5"/>
<path d="M56.993 23.747V25H51.239V14.948H52.73V23.747H56.993ZM63.7851 21.255L62.2941 17.356C62.1867 17.09 62.0794 16.754 61.9721 16.348C61.9207 16.5487 61.8671 16.7353 61.8111 16.908C61.7597 17.0807 61.7084 17.2347 61.6571 17.37L60.1731 21.255H63.7851ZM66.7321 25H65.5841C65.4534 25 65.3461 24.9673 65.2621 24.902C65.1781 24.8367 65.1174 24.7527 65.0801 24.65L64.1911 22.319H59.7601L58.8711 24.65C58.8384 24.7387 58.7777 24.8203 58.6891 24.895C58.6004 24.965 58.4931 25 58.3671 25H57.2191L61.2231 14.948H62.7281L66.7321 25ZM71.032 20.121C71.41 20.121 71.7414 20.072 72.026 19.974C72.3154 19.876 72.5557 19.7383 72.747 19.561C72.943 19.379 73.09 19.1643 73.188 18.917C73.286 18.665 73.335 18.3873 73.335 18.084C73.335 17.4727 73.1437 16.992 72.761 16.642C72.383 16.292 71.8067 16.117 71.032 16.117H69.478V20.121H71.032ZM71.032 14.948C71.676 14.948 72.236 15.0227 72.712 15.172C73.188 15.3213 73.5824 15.5337 73.895 15.809C74.2077 16.0797 74.4387 16.4087 74.588 16.796C74.742 17.1833 74.819 17.6127 74.819 18.084C74.819 18.5553 74.7374 18.9893 74.574 19.386C74.4107 19.778 74.1704 20.1163 73.853 20.401C73.5357 20.6857 73.139 20.9073 72.663 21.066C72.1917 21.22 71.648 21.297 71.032 21.297H69.478V25H67.987V14.948H71.032ZM85.8296 19.974C85.8296 20.7253 85.7083 21.416 85.4656 22.046C85.2276 22.6713 84.8893 23.2127 84.4506 23.67C84.0119 24.1227 83.4869 24.475 82.8756 24.727C82.2643 24.979 81.5853 25.105 80.8386 25.105C80.0966 25.105 79.4176 24.979 78.8016 24.727C78.1903 24.475 77.6653 24.1227 77.2266 23.67C76.7926 23.2127 76.4543 22.6713 76.2116 22.046C75.9689 21.416 75.8476 20.7253 75.8476 19.974C75.8476 19.2273 75.9689 18.539 76.2116 17.909C76.4543 17.279 76.7926 16.7377 77.2266 16.285C77.6653 15.8277 78.1903 15.473 78.8016 15.221C79.4176 14.9643 80.0966 14.836 80.8386 14.836C81.5853 14.836 82.2643 14.9643 82.8756 15.221C83.4869 15.473 84.0119 15.8277 84.4506 16.285C84.8893 16.7377 85.2276 17.279 85.4656 17.909C85.7083 18.539 85.8296 19.2273 85.8296 19.974ZM84.3036 19.974C84.3036 19.3767 84.2219 18.84 84.0586 18.364C83.8953 17.888 83.6619 17.4843 83.3586 17.153C83.0599 16.8217 82.6959 16.5673 82.2666 16.39C81.8419 16.2127 81.3659 16.124 80.8386 16.124C80.3113 16.124 79.8329 16.2127 79.4036 16.39C78.9789 16.5673 78.6149 16.8217 78.3116 17.153C78.0083 17.4843 77.7749 17.888 77.6116 18.364C77.4483 18.84 77.3666 19.3767 77.3666 19.974C77.3666 20.576 77.4483 21.115 77.6116 21.591C77.7749 22.0623 78.0083 22.4637 78.3116 22.795C78.6149 23.1263 78.9789 23.3807 79.4036 23.558C79.8329 23.7307 80.3113 23.817 80.8386 23.817C81.3659 23.817 81.8419 23.7307 82.2666 23.558C82.6959 23.3807 83.0599 23.1263 83.3586 22.795C83.6619 22.4637 83.8953 22.0623 84.0586 21.591C84.2219 21.115 84.3036 20.576 84.3036 19.974ZM90.5509 19.792C90.9336 19.792 91.2696 19.7453 91.5589 19.652C91.8529 19.5587 92.0979 19.428 92.2939 19.26C92.4899 19.0873 92.6369 18.8843 92.7349 18.651C92.8329 18.413 92.8819 18.1517 92.8819 17.867C92.8819 17.2883 92.6906 16.852 92.3079 16.558C91.9299 16.264 91.3606 16.117 90.5999 16.117H89.1929V19.792H90.5509ZM95.2409 25H93.9109C93.6449 25 93.4512 24.895 93.3299 24.685L90.8449 21.199C90.7656 21.0823 90.6792 21.0007 90.5859 20.954C90.4926 20.9027 90.3526 20.877 90.1659 20.877H89.1929V25H87.7019V14.948H90.5999C91.2486 14.948 91.8062 15.0157 92.2729 15.151C92.7442 15.2817 93.1316 15.4707 93.4349 15.718C93.7429 15.9607 93.9692 16.2547 94.1139 16.6C94.2632 16.9453 94.3379 17.3327 94.3379 17.762C94.3379 18.112 94.2842 18.441 94.1769 18.749C94.0696 19.057 93.9109 19.3347 93.7009 19.582C93.4956 19.8247 93.2436 20.0347 92.9449 20.212C92.6462 20.3893 92.3079 20.5247 91.9299 20.618C92.1166 20.73 92.2776 20.8863 92.4129 21.087L95.2409 25ZM98.0249 19.295H98.5149C98.6923 19.295 98.8346 19.274 98.9419 19.232C99.0539 19.1853 99.1543 19.1083 99.2429 19.001L102.442 15.284C102.545 15.158 102.65 15.0717 102.757 15.025C102.864 14.9737 102.997 14.948 103.156 14.948H104.43L100.706 19.232C100.613 19.3533 100.519 19.4513 100.426 19.526C100.337 19.6007 100.244 19.6637 100.146 19.715C100.403 19.8037 100.627 19.9833 100.818 20.254L104.689 25H103.394C103.301 25 103.219 24.993 103.149 24.979C103.084 24.965 103.025 24.9463 102.974 24.923C102.927 24.895 102.883 24.8623 102.841 24.825C102.804 24.7877 102.769 24.7433 102.736 24.692L99.4249 20.772C99.3783 20.7113 99.3316 20.66 99.2849 20.618C99.2383 20.576 99.1846 20.5433 99.1239 20.52C99.0633 20.492 98.9933 20.4733 98.9139 20.464C98.8346 20.45 98.7413 20.443 98.6339 20.443H98.0249V25H96.5339V14.948H98.0249V19.295ZM111.24 21.255L109.749 17.356C109.642 17.09 109.534 16.754 109.427 16.348C109.376 16.5487 109.322 16.7353 109.266 16.908C109.215 17.0807 109.163 17.2347 109.112 17.37L107.628 21.255H111.24ZM114.187 25H113.039C112.908 25 112.801 24.9673 112.717 24.902C112.633 24.8367 112.572 24.7527 112.535 24.65L111.646 22.319H107.215L106.326 24.65C106.293 24.7387 106.233 24.8203 106.144 24.895C106.055 24.965 105.948 25 105.822 25H104.674L108.678 14.948H110.183L114.187 25ZM123.674 14.948V25H122.918C122.801 25 122.703 24.979 122.624 24.937C122.549 24.895 122.472 24.8273 122.393 24.734L116.716 17.391C116.725 17.517 116.732 17.6407 116.737 17.762C116.746 17.8833 116.751 17.9977 116.751 18.105V25H115.442V14.948H116.212C116.343 14.948 116.441 14.9643 116.506 14.997C116.571 15.025 116.644 15.0927 116.723 15.2L122.414 22.55C122.4 22.4147 122.388 22.284 122.379 22.158C122.374 22.0273 122.372 21.906 122.372 21.794V14.948H123.674ZM134.578 21.255L133.087 17.356C132.98 17.09 132.872 16.754 132.765 16.348C132.714 16.5487 132.66 16.7353 132.604 16.908C132.553 17.0807 132.501 17.2347 132.45 17.37L130.966 21.255H134.578ZM137.525 25H136.377C136.246 25 136.139 24.9673 136.055 24.902C135.971 24.8367 135.91 24.7527 135.873 24.65L134.984 22.319H130.553L129.664 24.65C129.631 24.7387 129.571 24.8203 129.482 24.895C129.393 24.965 129.286 25 129.16 25H128.012L132.016 14.948H133.521L137.525 25ZM141.629 19.792C142.012 19.792 142.348 19.7453 142.637 19.652C142.931 19.5587 143.176 19.428 143.372 19.26C143.568 19.0873 143.715 18.8843 143.813 18.651C143.911 18.413 143.96 18.1517 143.96 17.867C143.96 17.2883 143.769 16.852 143.386 16.558C143.008 16.264 142.439 16.117 141.678 16.117H140.271V19.792H141.629ZM146.319 25H144.989C144.723 25 144.529 24.895 144.408 24.685L141.923 21.199C141.844 21.0823 141.757 21.0007 141.664 20.954C141.571 20.9027 141.431 20.877 141.244 20.877H140.271V25H138.78V14.948H141.678C142.327 14.948 142.884 15.0157 143.351 15.151C143.822 15.2817 144.21 15.4707 144.513 15.718C144.821 15.9607 145.047 16.2547 145.192 16.6C145.341 16.9453 145.416 17.3327 145.416 17.762C145.416 18.112 145.362 18.441 145.255 18.749C145.148 19.057 144.989 19.3347 144.779 19.582C144.574 19.8247 144.322 20.0347 144.023 20.212C143.724 20.3893 143.386 20.5247 143.008 20.618C143.195 20.73 143.356 20.8863 143.491 21.087L146.319 25ZM154.151 16.194H150.959V25H149.475V16.194H146.269V14.948H154.151V16.194ZM157.094 25H155.596V14.948H157.094V25ZM161.066 19.295H161.556C161.733 19.295 161.876 19.274 161.983 19.232C162.095 19.1853 162.195 19.1083 162.284 19.001L165.483 15.284C165.586 15.158 165.691 15.0717 165.798 15.025C165.905 14.9737 166.038 14.948 166.197 14.948H167.471L163.747 19.232C163.654 19.3533 163.56 19.4513 163.467 19.526C163.378 19.6007 163.285 19.6637 163.187 19.715C163.444 19.8037 163.668 19.9833 163.859 20.254L167.73 25H166.435C166.342 25 166.26 24.993 166.19 24.979C166.125 24.965 166.066 24.9463 166.015 24.923C165.968 24.895 165.924 24.8623 165.882 24.825C165.845 24.7877 165.81 24.7433 165.777 24.692L162.466 20.772C162.419 20.7113 162.373 20.66 162.326 20.618C162.279 20.576 162.226 20.5433 162.165 20.52C162.104 20.492 162.034 20.4733 161.955 20.464C161.876 20.45 161.782 20.443 161.675 20.443H161.066V25H159.575V14.948H161.066V19.295ZM175.177 23.789L175.17 25H168.94V14.948H175.17V16.159H170.438V19.344H174.246V20.513H170.438V23.789H175.177ZM182.774 23.747V25H177.02V14.948H178.511V23.747H182.774Z" fill="black"/>
<path d="M23 27.25H39.5L31.25 13L23 27.25ZM32 25H30.5V23.5H32V25ZM32 22H30.5V19H32V22Z" fill="#CA0000"/>
</svg>
