<svg width="73" height="40" viewBox="0 0 73 40" fill="none" xmlns="http://www.w3.org/2000/svg">
<g clip-path="url(#clip0_978_525)">
<rect width="73" height="40" rx="20" fill="#9B9B9B"/>
<path d="M40.492 18.154C40.59 17.706 40.814 17.174 41.752 17.174C42.55 17.174 42.928 17.608 42.928 18.238C42.928 19.008 42.55 19.316 41.64 19.316H40.898V20.856H41.738C42.802 20.856 43.25 21.374 43.25 22.228C43.25 23.04 42.788 23.628 41.864 23.628C40.912 23.628 40.478 23.096 40.352 22.466H38.406C38.49 23.684 39.33 25.168 41.808 25.168C44.454 25.168 45.252 23.586 45.252 22.256C45.252 20.828 44.356 20.254 43.754 20.044V20.002C44.258 19.764 44.902 19.232 44.902 18.126C44.902 16.824 43.95 15.62 41.822 15.62C39.512 15.62 38.714 17.02 38.588 18.154H40.492ZM50.0366 25V15.774H48.6086C48.0906 16.362 47.2086 16.852 46.3266 17.02V18.518C46.7886 18.476 47.5726 18.308 47.9926 18.112V25H50.0366ZM58.4144 25L58.6664 23.334H54.2984C54.4524 22.914 54.9144 22.382 56.0484 21.584C57.7424 20.394 58.3304 19.75 58.3304 18.406C58.3304 17.034 57.5184 15.62 55.1524 15.62C53.0244 15.62 51.9884 16.95 51.8624 18.532H53.7944C53.9204 17.734 54.2424 17.174 55.1524 17.174C55.9224 17.174 56.3144 17.622 56.3144 18.42C56.3144 19.232 55.9224 19.554 54.6204 20.506C52.6184 21.962 51.9044 23.264 51.9044 24.874V25H58.4144Z" fill="white"/>
<path d="M29 15.75C29 15.2859 28.8156 14.8408 28.4874 14.5126C28.1592 14.1844 27.7141 14 27.25 14H16.75C16.2859 14 15.8408 14.1844 15.5126 14.5126C15.1844 14.8408 15 15.2859 15 15.75V22.75C15 23.2141 15.1844 23.6592 15.5126 23.9874C15.8408 24.3156 16.2859 24.5 16.75 24.5H25.1378C25.3698 24.5001 25.5923 24.5923 25.7564 24.7564L28.2528 27.2528C28.3139 27.314 28.3918 27.3558 28.4767 27.3728C28.5616 27.3898 28.6496 27.3812 28.7296 27.3481C28.8096 27.315 28.878 27.259 28.9262 27.187C28.9743 27.1151 29 27.0304 29 26.9439V15.75ZM19.375 19.25C19.375 19.4821 19.2828 19.7046 19.1187 19.8687C18.9546 20.0328 18.7321 20.125 18.5 20.125C18.2679 20.125 18.0454 20.0328 17.8813 19.8687C17.7172 19.7046 17.625 19.4821 17.625 19.25C17.625 19.0179 17.7172 18.7954 17.8813 18.6313C18.0454 18.4672 18.2679 18.375 18.5 18.375C18.7321 18.375 18.9546 18.4672 19.1187 18.6313C19.2828 18.7954 19.375 19.0179 19.375 19.25ZM22.875 19.25C22.875 19.4821 22.7828 19.7046 22.6187 19.8687C22.4546 20.0328 22.2321 20.125 22 20.125C21.7679 20.125 21.5454 20.0328 21.3813 19.8687C21.2172 19.7046 21.125 19.4821 21.125 19.25C21.125 19.0179 21.2172 18.7954 21.3813 18.6313C21.5454 18.4672 21.7679 18.375 22 18.375C22.2321 18.375 22.4546 18.4672 22.6187 18.6313C22.7828 18.7954 22.875 19.0179 22.875 19.25ZM25.5 20.125C25.2679 20.125 25.0454 20.0328 24.8813 19.8687C24.7172 19.7046 24.625 19.4821 24.625 19.25C24.625 19.0179 24.7172 18.7954 24.8813 18.6313C25.0454 18.4672 25.2679 18.375 25.5 18.375C25.7321 18.375 25.9546 18.4672 26.1187 18.6313C26.2828 18.7954 26.375 19.0179 26.375 19.25C26.375 19.4821 26.2828 19.7046 26.1187 19.8687C25.9546 20.0328 25.7321 20.125 25.5 20.125Z" fill="white"/>
</g>
<defs>
<clipPath id="clip0_978_525">
<rect width="73" height="40" fill="white"/>
</clipPath>
</defs>
</svg>
